<svg width="310" height="82" viewBox="0 0 310 82" fill="none" xmlns="http://www.w3.org/2000/svg">
<path d="M45.125 13.5312C47.2917 13.5312 49.1875 13.8125 50.8125 14.375C52.4583 14.9375 53.8333 15.7188 54.9375 16.7188C56.0417 17.6979 56.8646 18.8542 57.4062 20.1875C57.9688 21.5 58.25 22.9062 58.25 24.4062C58.25 26.0521 57.9688 27.6354 57.4062 29.1562C56.8646 30.6562 56.1042 32.0833 55.125 33.4375C54.1667 34.7917 53.0312 36.0625 51.7188 37.25C50.4062 38.4375 49 39.5208 47.5 40.5C46 41.4792 44.4375 42.3542 42.8125 43.125C41.2083 43.8958 39.6146 44.5417 38.0312 45.0625C39.1562 46.0625 40.1771 47.2292 41.0938 48.5625C42.0104 49.875 42.8854 51.2812 43.7188 52.7812C44.5521 54.2604 45.375 55.7812 46.1875 57.3438C47 58.9062 47.8542 60.4271 48.75 61.9062C49.6458 63.3646 50.6146 64.75 51.6562 66.0625C52.7188 67.375 53.9167 68.5208 55.25 69.5C56.6042 70.5 58.1146 71.2812 59.7812 71.8438C61.4479 72.4271 63.3542 72.7188 65.5 72.7188L65.625 74C65.3542 74.0625 65.0417 74.1146 64.6875 74.1562C64.3958 74.1979 64.0312 74.2292 63.5938 74.25C63.1562 74.2917 62.6562 74.3125 62.0938 74.3125C59.3854 74.3125 57.0208 74 55 73.375C52.9792 72.7708 51.2188 71.9375 49.7188 70.875C48.2396 69.8333 46.9792 68.6146 45.9375 67.2188C44.8958 65.8438 43.9792 64.3854 43.1875 62.8438C42.4167 61.2812 41.7396 59.6979 41.1562 58.0938C40.5729 56.4688 39.9896 54.9062 39.4062 53.4062C38.8438 51.8854 38.2396 50.4792 37.5938 49.1875C36.9688 47.875 36.2188 46.7604 35.3438 45.8438C34.9271 45.9479 34.5104 46.0312 34.0938 46.0938C33.6979 46.1562 33.3021 46.2188 32.9062 46.2812C32.8854 47.7812 32.8542 49.0833 32.8125 50.1875C32.7917 51.2708 32.7604 52.2292 32.7188 53.0625C32.6771 53.875 32.625 54.5938 32.5625 55.2188C32.5 55.8438 32.4271 56.4479 32.3438 57.0312C32.1146 58.6562 31.7812 60.0417 31.3438 61.1875C30.9062 62.3125 30.375 63.2396 29.75 63.9688C29.125 64.6771 28.4062 65.1979 27.5938 65.5312C26.8021 65.8438 25.9271 66 24.9688 66C23.6146 66 22.3438 65.6042 21.1562 64.8125C19.9896 64.0208 18.9792 62.8438 18.125 61.2812C17.2708 59.7188 16.5938 57.7812 16.0938 55.4688C15.6146 53.1562 15.375 50.4792 15.375 47.4375C15.375 44.25 15.7188 41.1979 16.4062 38.2812C17.0938 35.3438 18.0625 32.625 19.3125 30.125C20.5833 27.6042 22.1146 25.3229 23.9062 23.2812C25.6979 21.2396 27.6875 19.5 29.875 18.0625C32.0833 16.6042 34.4688 15.4896 37.0312 14.7188C39.6146 13.9271 42.3125 13.5312 45.125 13.5312ZM25.9375 43.9062C25.9375 43.3646 26.1458 42.9062 26.5625 42.5312C27 42.1354 27.5833 41.875 28.3125 41.75C28.2708 39.7083 28.2188 37.8438 28.1562 36.1562C28.0938 34.4688 28.0417 33.0104 28 31.7812C27.9375 30.3438 27.8854 29.0521 27.8438 27.9062C27.9896 27.7812 28.1562 27.6771 28.3438 27.5938C28.5104 27.5104 28.7083 27.4375 28.9375 27.375C29.1667 27.3125 29.4479 27.2812 29.7812 27.2812C30.7396 27.2812 31.5104 27.4583 32.0938 27.8125C32.6771 28.1458 32.9688 28.7188 32.9688 29.5312C32.9688 31.9896 32.9688 34.2708 32.9688 36.375C32.9688 38.4583 32.9479 40.4167 32.9062 42.25C33.5729 42.4375 34.2083 42.6771 34.8125 42.9688C35.4375 43.2396 36.0208 43.5521 36.5625 43.9062C38.4792 43.3854 40.4062 42.6354 42.3438 41.6562C44.2812 40.6771 46.0208 39.4375 47.5625 37.9375C49.125 36.4167 50.3854 34.625 51.3438 32.5625C52.3229 30.4792 52.8125 28.0833 52.8125 25.375C52.8125 23.6042 52.5625 22.0938 52.0625 20.8438C51.5833 19.5938 50.9271 18.5729 50.0938 17.7812C49.2604 16.9688 48.2708 16.375 47.125 16C46 15.625 44.8021 15.4375 43.5312 15.4375C41.4062 15.4375 39.3125 15.75 37.25 16.375C35.2083 16.9792 33.2708 17.9062 31.4375 19.1562C29.625 20.4062 27.9479 21.9896 26.4062 23.9062C24.8854 25.8229 23.5625 28.0833 22.4375 30.6875C21.3333 33.2917 20.4688 36.25 19.8438 39.5625C19.2188 42.875 18.9062 46.5625 18.9062 50.625C18.9062 52.3958 18.9896 54.1146 19.1562 55.7812C19.3438 57.4271 19.6458 58.8958 20.0625 60.1875C20.4792 61.4583 21.0312 62.4792 21.7188 63.25C22.4271 64.0208 23.3021 64.4062 24.3438 64.4062C24.9062 64.4062 25.4375 64.2917 25.9375 64.0625C26.4375 63.8333 26.875 63.3646 27.25 62.6562C27.625 61.9271 27.9271 60.8958 28.1562 59.5625C28.3854 58.2083 28.5 56.4062 28.5 54.1562C28.5 53.3438 28.5 52.625 28.5 52C28.5 51.3542 28.5 50.7396 28.5 50.1562C28.5 49.5521 28.4896 48.9479 28.4688 48.3438C28.4688 47.7396 28.4583 47.0729 28.4375 46.3438C27.6458 46.1562 27.0312 45.8542 26.5938 45.4375C26.1562 45.0208 25.9375 44.5104 25.9375 43.9062ZM27.5312 43.9062C27.5312 44.1146 27.5625 44.2917 27.625 44.4375C27.7083 44.5833 27.9583 44.7083 28.375 44.8125V43.3438C27.8125 43.4688 27.5312 43.6562 27.5312 43.9062ZM32.9062 44.6875C33.0729 44.6875 33.2292 44.6771 33.375 44.6562C33.5417 44.6354 33.7083 44.6042 33.875 44.5625C33.7083 44.4583 33.5417 44.3646 33.375 44.2812C33.2292 44.1979 33.0729 44.125 32.9062 44.0625V44.6875ZM65.875 62.4688C66.6042 62.4688 67.3438 62.2812 68.0938 61.9062C68.8646 61.5312 69.6354 60.9479 70.4062 60.1562C71.1979 59.3646 72.0104 58.3438 72.8438 57.0938C73.6771 55.8229 74.5312 54.3125 75.4062 52.5625L75.7188 51.9062L77 52.875L76.6875 53.5312C75.5625 55.7604 74.4375 57.6667 73.3125 59.25C72.2083 60.8333 71.1146 62.125 70.0312 63.125C68.9688 64.125 67.9167 64.8542 66.875 65.3125C65.8333 65.7708 64.8333 66 63.875 66C62.5208 66 61.3125 65.7188 60.25 65.1562C59.1875 64.5938 58.2917 63.8333 57.5625 62.875C56.8333 61.8958 56.2812 60.7708 55.9062 59.5C55.5104 58.2083 55.3125 56.8542 55.3125 55.4375C55.3125 53.1875 55.625 51.1458 56.25 49.3125C56.8542 47.4583 57.6667 45.875 58.6875 44.5625C59.7292 43.25 60.9062 42.2292 62.2188 41.5C63.5312 40.7708 64.8958 40.4062 66.3125 40.4062C67.75 40.4062 68.8438 40.7708 69.5938 41.5C70.3646 42.2292 70.75 43.1458 70.75 44.25C70.75 45.3125 70.4479 46.3125 69.8438 47.25C69.2396 48.1667 68.4167 49.0729 67.375 49.9688C66.3542 50.8438 65.1667 51.7188 63.8125 52.5938C62.4583 53.4479 61.0312 54.3333 59.5312 55.25C59.6771 56.3333 59.9271 57.3229 60.2812 58.2188C60.6354 59.0938 61.0833 59.8542 61.625 60.5C62.1667 61.125 62.7917 61.6146 63.5 61.9688C64.2083 62.3021 65 62.4688 65.875 62.4688ZM66.8438 45.1875C66.8438 44.3542 66.6146 43.6979 66.1562 43.2188C65.7188 42.7396 65.1771 42.5 64.5312 42.5C63.9896 42.5 63.4167 42.6979 62.8125 43.0938C62.2083 43.4688 61.6562 44.0833 61.1562 44.9375C60.6562 45.7708 60.2396 46.8438 59.9062 48.1562C59.5729 49.4688 59.4062 51.0625 59.4062 52.9375V53.6562C60.1146 53.2812 60.8958 52.7917 61.75 52.1875C62.625 51.5625 63.4375 50.875 64.1875 50.125C64.9375 49.375 65.5625 48.5833 66.0625 47.75C66.5833 46.8958 66.8438 46.0417 66.8438 45.1875ZM87.75 42.5625C87.1667 42.5625 86.5104 42.8229 85.7812 43.3438C85.0729 43.8646 84.3542 44.5417 83.625 45.375C82.8958 46.1875 82.1875 47.1042 81.5 48.125C80.8333 49.1458 80.25 50.1562 79.75 51.1562C79.6875 52.9896 79.625 54.9896 79.5625 57.1562C79.5208 59.3229 79.5 61.6354 79.5 64.0938C79.5 64.4062 79.3542 64.6875 79.0625 64.9375C78.7917 65.1667 78.4688 65.3646 78.0938 65.5312C77.7188 65.6771 77.3333 65.7917 76.9375 65.875C76.5417 65.9583 76.2188 66 75.9688 66C75.6562 66 75.3646 65.9062 75.0938 65.7188C74.8229 65.5312 74.6875 65.1146 74.6875 64.4688C74.6875 64.1562 74.7188 63.7708 74.7812 63.3125C74.8438 62.8333 74.9271 62.3229 75.0312 61.7812C75.1146 61.2396 75.2188 60.6875 75.3438 60.125C75.4479 59.5417 75.5521 59 75.6562 58.5V43.2188C75.6562 42.8021 75.6667 42.4792 75.6875 42.25C75.6875 42 75.7188 41.8125 75.7812 41.6875C75.9062 41.3958 76.125 41.1667 76.4375 41C76.75 40.8333 77.0833 40.7083 77.4375 40.625C77.7917 40.5208 78.1354 40.4583 78.4688 40.4375C78.8021 40.4167 79.0625 40.4062 79.25 40.4062C79.6042 40.4062 79.8438 40.5 79.9688 40.6875C80.1146 40.875 80.1875 41.2083 80.1875 41.6875C80.1875 41.625 80.1354 42.1354 80.0312 43.2188C79.9479 44.3021 79.875 45.8542 79.8125 47.875C80.4375 46.8958 81.1146 45.9583 81.8438 45.0625C82.5729 44.1667 83.3333 43.375 84.125 42.6875C84.9167 42 85.7292 41.4479 86.5625 41.0312C87.4167 40.6146 88.2812 40.4062 89.1562 40.4062C90.7188 40.4062 91.8646 40.9062 92.5938 41.9062C93.3229 42.8854 93.6875 44.2188 93.6875 45.9062C93.6875 46.9688 93.6146 48.1562 93.4688 49.4688C93.3438 50.7604 93.1875 52.0833 93 53.4375C92.8333 54.7708 92.6771 56.0833 92.5312 57.375C92.4062 58.6458 92.3438 59.8125 92.3438 60.875C92.3438 62.25 92.7708 62.9375 93.625 62.9375C93.8958 62.9375 94.2083 62.8021 94.5625 62.5312C94.9375 62.2396 95.3958 61.7083 95.9375 60.9375C96.5 60.1667 97.1667 59.1146 97.9375 57.7812C98.7083 56.4271 99.625 54.6875 100.688 52.5625L101 51.9062L102.281 52.875L101.969 53.5312C100.719 56.0312 99.6042 58.0833 98.625 59.6875C97.6667 61.2917 96.7917 62.5625 96 63.5C95.2083 64.4375 94.4688 65.0938 93.7812 65.4688C93.0938 65.8229 92.4062 66 91.7188 66C91.2812 66 90.8438 65.9375 90.4062 65.8125C89.9688 65.6875 89.5833 65.4688 89.25 65.1562C88.9167 64.8438 88.6458 64.4271 88.4375 63.9062C88.2292 63.3646 88.125 62.6771 88.125 61.8438C88.125 60.5938 88.2083 59.1875 88.375 57.625C88.5417 56.0625 88.7292 54.5 88.9375 52.9375C89.1458 51.375 89.3333 49.9062 89.5 48.5312C89.6667 47.1354 89.75 46 89.75 45.125C89.75 44.3542 89.5833 43.7396 89.25 43.2812C88.9167 42.8021 88.4167 42.5625 87.75 42.5625ZM100.906 55.75C100.906 53.5417 100.99 51.3229 101.156 49.0938C101.323 46.8646 101.542 44.6042 101.812 42.3125H98.9688L99.3125 40.4062H102.062C102.354 38.2812 102.646 36.1562 102.938 34.0312C103.25 31.8854 103.531 29.7396 103.781 27.5938H106.969C106.927 28.0521 106.865 28.7188 106.781 29.5938C106.719 30.4479 106.635 31.4479 106.531 32.5938C106.448 33.7188 106.365 34.9583 106.281 36.3125C106.198 37.6458 106.115 39.0104 106.031 40.4062H112.094L111.781 42.3125H105.906C105.823 43.5 105.75 44.6667 105.688 45.8125C105.625 46.9583 105.562 48.0521 105.5 49.0938C105.458 50.1146 105.427 51.0625 105.406 51.9375C105.385 52.7917 105.375 53.5312 105.375 54.1562C105.375 55.7396 105.417 57.0625 105.5 58.125C105.604 59.1875 105.75 60.0417 105.938 60.6875C106.146 61.3333 106.396 61.7917 106.688 62.0625C107 62.3333 107.354 62.4688 107.75 62.4688C108.271 62.4688 108.844 62.2083 109.469 61.6875C110.115 61.1458 110.781 60.4271 111.469 59.5312C112.156 58.6354 112.854 57.5938 113.562 56.4062C114.271 55.1979 114.958 53.9167 115.625 52.5625L115.938 51.9062L117.219 52.875L116.906 53.5312C115.948 55.4688 114.99 57.2083 114.031 58.75C113.094 60.2917 112.167 61.6042 111.25 62.6875C110.333 63.75 109.438 64.5729 108.562 65.1562C107.688 65.7188 106.844 66 106.031 66C105.219 66 104.49 65.8125 103.844 65.4375C103.219 65.0625 102.688 64.4688 102.25 63.6562C101.812 62.8229 101.479 61.7604 101.25 60.4688C101.021 59.1771 100.906 57.6042 100.906 55.75Z" fill="white"/>
<path d="M166 62.0312C166.375 62.0312 166.802 61.7917 167.281 61.3125C167.781 60.8125 168.312 60.1354 168.875 59.2812C169.438 58.4271 170.031 57.4271 170.656 56.2812C171.281 55.1354 171.927 53.8958 172.594 52.5625L172.906 51.9062L174.188 52.875L173.875 53.5312C172.771 55.7396 171.781 57.6354 170.906 59.2188C170.052 60.7812 169.25 62.0729 168.5 63.0938C167.75 64.0938 167.031 64.8333 166.344 65.3125C165.677 65.7708 164.99 66 164.281 66C163.344 66 162.531 65.6979 161.844 65.0938C161.177 64.4688 160.615 63.4375 160.156 62C159.719 60.5417 159.396 58.625 159.188 56.25C158.958 53.875 158.844 50.9375 158.844 47.4375C158.844 42.4792 159.052 38.2292 159.469 34.6875C159.885 31.125 160.448 28.2083 161.156 25.9375C161.885 23.6458 162.719 21.9688 163.656 20.9062C164.615 19.8229 165.615 19.2812 166.656 19.2812C167.281 19.2812 167.802 19.5417 168.219 20.0625C168.656 20.5625 168.875 21.4792 168.875 22.8125C168.875 23.8542 168.792 25.0417 168.625 26.375C168.458 27.7083 168.24 29.1354 167.969 30.6562C167.698 32.1771 167.375 33.7604 167 35.4062C166.625 37.0312 166.229 38.6562 165.812 40.2812C165.396 41.8854 164.969 43.4688 164.531 45.0312C164.094 46.5729 163.667 48.0208 163.25 49.375C163.375 51.9375 163.51 54.0417 163.656 55.6875C163.823 57.3125 164.01 58.5938 164.219 59.5312C164.448 60.4688 164.708 61.125 165 61.5C165.292 61.8542 165.625 62.0312 166 62.0312ZM166.844 23.5625C166.844 23.125 166.792 22.7812 166.688 22.5312C166.583 22.2812 166.417 22.1562 166.188 22.1562C165.958 22.1562 165.729 22.4792 165.5 23.125C165.271 23.7708 165.042 24.6458 164.812 25.75C164.604 26.8542 164.406 28.1354 164.219 29.5938C164.052 31.0521 163.896 32.6042 163.75 34.25C163.604 35.875 163.49 37.5417 163.406 39.25C163.323 40.9583 163.271 42.6042 163.25 44.1875C163.75 42.3542 164.208 40.4792 164.625 38.5625C165.062 36.625 165.448 34.75 165.781 32.9375C166.115 31.125 166.375 29.4167 166.562 27.8125C166.75 26.1875 166.844 24.7708 166.844 23.5625ZM221.469 13.8438C222.74 13.8438 223.823 14.1771 224.719 14.8438C225.615 15.4896 226.354 16.4271 226.938 17.6562C227.521 18.8646 227.948 20.3438 228.219 22.0938C228.49 23.8229 228.625 25.7604 228.625 27.9062C228.625 29.9062 228.51 32 228.281 34.1875C228.052 36.375 227.708 38.5938 227.25 40.8438C226.812 43.0729 226.26 45.2812 225.594 47.4688C224.948 49.6562 224.208 51.7396 223.375 53.7188C222.542 55.6979 221.615 57.5417 220.594 59.25C219.573 60.9375 218.469 62.4062 217.281 63.6562C216.094 64.8854 214.823 65.8438 213.469 66.5312C212.135 67.2396 210.729 67.5938 209.25 67.5938C207.688 67.5938 206.333 67.3125 205.188 66.75C204.062 66.2083 203.104 65.4688 202.312 64.5312C201.542 63.5729 200.917 62.4792 200.438 61.25C199.958 60 199.583 58.6875 199.312 57.3125C199.062 55.9375 198.896 54.5417 198.812 53.125C198.729 51.6875 198.688 50.3229 198.688 49.0312C198.688 46.5521 198.792 44.1458 199 41.8125C199.208 39.4583 199.438 37.1875 199.688 35C199.958 32.8125 200.198 30.7188 200.406 28.7188C200.615 26.7188 200.719 24.8125 200.719 23C200.719 21.4792 200.635 20.2188 200.469 19.2188C200.302 18.1979 200.042 17.3854 199.688 16.7812C199.354 16.1771 198.927 15.75 198.406 15.5C197.885 15.25 197.271 15.125 196.562 15.125C195.646 15.125 194.74 15.3333 193.844 15.75C192.948 16.1667 192.083 16.75 191.25 17.5C190.438 18.2292 189.688 19.1042 189 20.125C188.312 21.125 187.719 22.2188 187.219 23.4062C186.698 24.5938 186.292 25.8438 186 27.1562C185.708 28.4479 185.562 29.75 185.562 31.0625C185.562 32.4167 185.656 33.5521 185.844 34.4688C186.031 35.3854 186.292 36.125 186.625 36.6875C186.938 37.25 187.323 37.6562 187.781 37.9062C188.26 38.1562 188.781 38.2812 189.344 38.2812C190.323 38.2812 191.208 38.0208 192 37.5C192.792 36.9583 193.479 36.2083 194.062 35.25C194.646 34.2708 195.125 33.1042 195.5 31.75C195.875 30.375 196.146 28.8646 196.312 27.2188L197.781 27.2812C197.719 27.9896 197.604 28.8021 197.438 29.7188C197.292 30.6146 197.073 31.5312 196.781 32.4688C196.49 33.3854 196.125 34.2917 195.688 35.1875C195.25 36.0833 194.708 36.875 194.062 37.5625C193.417 38.25 192.667 38.8125 191.812 39.25C190.958 39.6667 189.969 39.875 188.844 39.875C188.031 39.875 187.188 39.7188 186.312 39.4062C185.438 39.0938 184.635 38.6042 183.906 37.9375C183.177 37.2708 182.583 36.4062 182.125 35.3438C181.646 34.2604 181.406 32.9583 181.406 31.4375C181.406 29.9375 181.625 28.4583 182.062 27C182.479 25.5417 183.062 24.1458 183.812 22.8125C184.542 21.4792 185.417 20.25 186.438 19.125C187.438 18 188.531 17.0208 189.719 16.1875C190.906 15.3542 192.156 14.7083 193.469 14.25C194.781 13.7708 196.094 13.5312 197.406 13.5312C202.99 13.5312 205.781 17.5833 205.781 25.6875C205.781 27.6667 205.688 29.7708 205.5 32C205.333 34.2292 205.146 36.5104 204.938 38.8438C204.75 41.1562 204.562 43.4792 204.375 45.8125C204.208 48.125 204.125 50.3542 204.125 52.5C204.125 55.2917 204.25 57.5521 204.5 59.2812C204.75 61.0104 205.115 62.3542 205.594 63.3125C206.073 64.25 206.656 64.8854 207.344 65.2188C208.031 65.5312 208.812 65.6875 209.688 65.6875C211 65.6875 212.292 65.2083 213.562 64.25C214.833 63.2708 216.042 61.9583 217.188 60.3125C218.333 58.6458 219.385 56.7083 220.344 54.5C221.323 52.2708 222.167 49.9062 222.875 47.4062C223.583 44.8854 224.135 42.2917 224.531 39.625C224.927 36.9375 225.125 34.3125 225.125 31.75C225.125 28.8542 224.969 26.4479 224.656 24.5312C224.344 22.5938 223.917 21.0521 223.375 19.9062C222.833 18.7396 222.208 17.9167 221.5 17.4375C220.792 16.9583 220.031 16.7188 219.219 16.7188C218.656 16.7188 218.115 16.8229 217.594 17.0312C217.094 17.2188 216.625 17.4583 216.188 17.75C215.75 18.0417 215.354 18.3542 215 18.6875C214.646 19.0208 214.354 19.3229 214.125 19.5938L212.844 18.625C213.135 18.25 213.562 17.7917 214.125 17.25C214.708 16.7083 215.375 16.1875 216.125 15.6875C216.896 15.1875 217.729 14.7604 218.625 14.4062C219.542 14.0312 220.49 13.8438 221.469 13.8438ZM231.812 52.25L231.5 52.875L231.188 53.5312L229.906 52.5625L230.219 51.9062C230.74 50.8438 231.167 49.7812 231.5 48.7188C231.854 47.6354 232.135 46.625 232.344 45.6875C232.573 44.75 232.76 43.9271 232.906 43.2188C233.052 42.5104 233.198 42 233.344 41.6875C233.469 41.4375 233.646 41.2396 233.875 41.0938C234.125 40.9271 234.375 40.7917 234.625 40.6875C234.896 40.5833 235.146 40.5104 235.375 40.4688C235.625 40.4271 235.802 40.4062 235.906 40.4062C236.365 40.4062 236.667 40.5 236.812 40.6875C236.979 40.875 237.062 41.2083 237.062 41.6875C237.062 41.9167 237.01 42.4896 236.906 43.4062C236.823 44.3021 236.719 45.4375 236.594 46.8125C236.49 48.1667 236.385 49.6979 236.281 51.4062C236.198 53.0938 236.156 54.8438 236.156 56.6562C236.156 57.9688 236.219 59.0104 236.344 59.7812C236.469 60.5312 236.625 61.0938 236.812 61.4688C237.021 61.8438 237.24 62.0833 237.469 62.1875C237.719 62.2917 237.969 62.3438 238.219 62.3438C238.552 62.3438 238.927 62.1979 239.344 61.9062C239.76 61.6146 240.25 61.1042 240.812 60.375C241.375 59.625 242.021 58.625 242.75 57.375C243.479 56.1042 244.333 54.5 245.312 52.5625L245.656 51.9062L246.938 52.875L246.594 53.5312C245.802 55.0729 245.01 56.5938 244.219 58.0938C243.448 59.5938 242.656 60.9271 241.844 62.0938C241.052 63.2604 240.25 64.2083 239.438 64.9375C238.625 65.6458 237.812 66 237 66C236.146 66 235.406 65.8333 234.781 65.5C234.177 65.1458 233.667 64.5729 233.25 63.7812C232.854 62.9896 232.552 61.9479 232.344 60.6562C232.156 59.3438 232.062 57.7292 232.062 55.8125C232.062 55.2708 232.062 54.7083 232.062 54.125C232.062 53.5208 232.083 52.8958 232.125 52.25H231.812ZM238.219 34C238.219 34.7292 237.969 35.3438 237.469 35.8438C236.99 36.3229 236.385 36.5625 235.656 36.5625C234.948 36.5625 234.344 36.3229 233.844 35.8438C233.344 35.3438 233.094 34.7292 233.094 34C233.094 33.2917 233.344 32.6875 233.844 32.1875C234.344 31.6875 234.948 31.4375 235.656 31.4375C236.385 31.4375 236.99 31.6875 237.469 32.1875C237.969 32.6875 238.219 33.2917 238.219 34ZM263.906 55.125C263.906 56.5417 263.688 57.9062 263.25 59.2188C262.833 60.5104 262.208 61.6667 261.375 62.6875C260.562 63.6875 259.542 64.4896 258.312 65.0938C257.104 65.6979 255.719 66 254.156 66C253.031 66 252.021 65.8229 251.125 65.4688C250.25 65.0938 249.5 64.6042 248.875 64C248.25 63.375 247.771 62.6771 247.438 61.9062C247.104 61.1146 246.938 60.3021 246.938 59.4688C246.938 58.6354 247.094 57.8646 247.406 57.1562C247.74 56.4271 248.177 55.8125 248.719 55.3125C249.281 54.7917 249.917 54.3854 250.625 54.0938C251.333 53.8021 252.083 53.6562 252.875 53.6562C253.375 53.6562 253.896 53.7188 254.438 53.8438V54.75C253.771 54.75 253.115 54.8854 252.469 55.1562C251.844 55.4271 251.281 55.8021 250.781 56.2812C250.302 56.7396 249.917 57.3021 249.625 57.9688C249.333 58.6146 249.188 59.3125 249.188 60.0625C249.188 61.4375 249.656 62.5417 250.594 63.375C251.552 64.1875 252.854 64.5938 254.5 64.5938C255.333 64.5938 256.094 64.4375 256.781 64.125C257.469 63.7917 258.052 63.3438 258.531 62.7812C259.031 62.1979 259.406 61.5104 259.656 60.7188C259.927 59.9271 260.062 59.0625 260.062 58.125C260.062 57.2292 259.885 56.3958 259.531 55.625C259.177 54.8542 258.708 54.125 258.125 53.4375C257.542 52.75 256.875 52.1042 256.125 51.5C255.396 50.8958 254.646 50.3229 253.875 49.7812C253.125 49.2188 252.385 48.6771 251.656 48.1562C250.927 47.6354 250.292 47.1146 249.75 46.5938L246.625 53.5312L245.344 52.5625L248.531 45.5938C247.76 44.8646 247.188 44.1771 246.812 43.5312C246.458 42.8646 246.281 42.0729 246.281 41.1562C246.281 40.6562 246.365 40.1875 246.531 39.75C246.719 39.2917 246.958 38.9062 247.25 38.5938C247.562 38.2604 247.917 38 248.312 37.8125C248.708 37.625 249.125 37.5312 249.562 37.5312C250.354 37.5312 250.948 37.7604 251.344 38.2188C251.74 38.6562 251.938 39.2083 251.938 39.875C251.938 40.1875 251.906 40.5208 251.844 40.875C251.781 41.2083 251.698 41.5521 251.594 41.9062C251.51 42.2396 251.417 42.5521 251.312 42.8438C251.229 43.1354 251.156 43.3854 251.094 43.5938C251.719 44.0729 252.469 44.5417 253.344 45C254.219 45.4375 255.125 45.8958 256.062 46.375C257.021 46.8542 257.969 47.375 258.906 47.9375C259.844 48.5 260.677 49.125 261.406 49.8125C262.156 50.5 262.76 51.2812 263.219 52.1562C263.677 53.0312 263.906 54.0208 263.906 55.125ZM249.625 38.9375C249.333 38.9375 249.094 39.0417 248.906 39.25C248.74 39.4375 248.656 39.6979 248.656 40.0312C248.656 40.4062 248.75 40.8229 248.938 41.2812C249.125 41.7396 249.458 42.1875 249.938 42.625C250.146 42.1875 250.302 41.7604 250.406 41.3438C250.531 40.9271 250.594 40.5104 250.594 40.0938C250.594 39.7604 250.5 39.4896 250.312 39.2812C250.146 39.0521 249.917 38.9375 249.625 38.9375ZM266.344 55.75C266.344 53.5417 266.427 51.3229 266.594 49.0938C266.76 46.8646 266.979 44.6042 267.25 42.3125H264.406L264.75 40.4062H267.5C267.792 38.2812 268.083 36.1562 268.375 34.0312C268.688 31.8854 268.969 29.7396 269.219 27.5938H272.406C272.365 28.0521 272.302 28.7188 272.219 29.5938C272.156 30.4479 272.073 31.4479 271.969 32.5938C271.885 33.7188 271.802 34.9583 271.719 36.3125C271.635 37.6458 271.552 39.0104 271.469 40.4062H277.531L277.219 42.3125H271.344C271.26 43.5 271.188 44.6667 271.125 45.8125C271.062 46.9583 271 48.0521 270.938 49.0938C270.896 50.1146 270.865 51.0625 270.844 51.9375C270.823 52.7917 270.812 53.5312 270.812 54.1562C270.812 55.7396 270.854 57.0625 270.938 58.125C271.042 59.1875 271.188 60.0417 271.375 60.6875C271.583 61.3333 271.833 61.7917 272.125 62.0625C272.438 62.3333 272.792 62.4688 273.188 62.4688C273.708 62.4688 274.281 62.2083 274.906 61.6875C275.552 61.1458 276.219 60.4271 276.906 59.5312C277.594 58.6354 278.292 57.5938 279 56.4062C279.708 55.1979 280.396 53.9167 281.062 52.5625L281.375 51.9062L282.656 52.875L282.344 53.5312C281.385 55.4688 280.427 57.2083 279.469 58.75C278.531 60.2917 277.604 61.6042 276.688 62.6875C275.771 63.75 274.875 64.5729 274 65.1562C273.125 65.7188 272.281 66 271.469 66C270.656 66 269.927 65.8125 269.281 65.4375C268.656 65.0625 268.125 64.4688 267.688 63.6562C267.25 62.8229 266.917 61.7604 266.688 60.4688C266.458 59.1771 266.344 57.6042 266.344 55.75ZM300.344 58.25C300.344 59.4375 300.448 60.4375 300.656 61.25C300.865 62.0625 301.229 62.4688 301.75 62.4688C302.062 62.4688 302.396 62.3229 302.75 62.0312C303.125 61.7188 303.552 61.2188 304.031 60.5312C304.51 59.8438 305.052 58.9583 305.656 57.875C306.281 56.7708 306.99 55.4271 307.781 53.8438L308.719 51.9062L310 52.875L309.062 54.8125C308.188 56.5625 307.365 58.1354 306.594 59.5312C305.844 60.9062 305.125 62.0729 304.438 63.0312C303.75 63.9896 303.073 64.7292 302.406 65.25C301.76 65.75 301.115 66 300.469 66C299.781 66 299.198 65.8125 298.719 65.4375C298.26 65.0625 297.875 64.5521 297.562 63.9062C297.25 63.2396 297.01 62.4792 296.844 61.625C296.677 60.75 296.562 59.8229 296.5 58.8438C296 59.8438 295.448 60.7812 294.844 61.6562C294.24 62.5104 293.604 63.2604 292.938 63.9062C292.292 64.5521 291.615 65.0625 290.906 65.4375C290.198 65.8125 289.49 66 288.781 66C287.74 66 286.729 65.7812 285.75 65.3438C284.771 64.9062 283.896 64.2396 283.125 63.3438C282.375 62.4479 281.771 61.3229 281.312 59.9688C280.854 58.5938 280.625 56.9792 280.625 55.125C280.625 52.9583 280.906 50.9792 281.469 49.1875C282.031 47.375 282.792 45.8229 283.75 44.5312C284.708 43.2188 285.812 42.2083 287.062 41.5C288.312 40.7708 289.625 40.4062 291 40.4062C291.833 40.4062 292.604 40.5938 293.312 40.9688C294.021 41.3438 294.635 41.8021 295.156 42.3438C295.698 42.8646 296.146 43.4271 296.5 44.0312C296.854 44.6146 297.094 45.1146 297.219 45.5312L297.594 42.5C297.635 42.1042 297.823 41.7708 298.156 41.5C298.51 41.2292 298.896 41.0208 299.312 40.875C299.729 40.7083 300.135 40.5938 300.531 40.5312C300.927 40.4479 301.208 40.4062 301.375 40.4062C301.625 40.4062 301.792 40.4479 301.875 40.5312C301.958 40.6146 302 40.7812 302 41.0312C302 41.3438 301.906 41.9792 301.719 42.9375C301.552 43.875 301.365 45.0833 301.156 46.5625C300.969 48.0208 300.781 49.7396 300.594 51.7188C300.427 53.6979 300.344 55.875 300.344 58.25ZM296.906 50C296.906 49.0417 296.76 48.1042 296.469 47.1875C296.177 46.25 295.781 45.4271 295.281 44.7188C294.781 43.9896 294.198 43.4062 293.531 42.9688C292.885 42.5312 292.198 42.3125 291.469 42.3125C290.573 42.3125 289.729 42.5729 288.938 43.0938C288.167 43.5938 287.49 44.3125 286.906 45.25C286.344 46.1667 285.896 47.2812 285.562 48.5938C285.229 49.8854 285.062 51.3125 285.062 52.875C285.062 56 285.552 58.3854 286.531 60.0312C287.51 61.6562 288.812 62.4688 290.438 62.4688C291.146 62.4688 291.875 62.1875 292.625 61.625C293.396 61.0417 294.094 60.2188 294.719 59.1562C295.365 58.0729 295.885 56.7604 296.281 55.2188C296.698 53.6771 296.906 51.9375 296.906 50Z" fill="white"/>
<g filter="url(#filter0_d)">
<path d="M147.5 59.6443V41.4094L133.5 33.3557L119.5 41.4094V59.6443H126.5V55.0302C126.5 53.2502 127.237 51.5432 128.55 50.2845C129.863 49.0259 131.643 48.3188 133.5 48.3188C135.357 48.3188 137.137 49.0259 138.45 50.2845C139.763 51.5432 140.5 53.2502 140.5 55.0302V59.6443H147.5ZM137 63V55.0302C137 54.1402 136.631 53.2867 135.975 52.6574C135.318 52.0281 134.428 51.6745 133.5 51.6745C132.572 51.6745 131.682 52.0281 131.025 52.6574C130.369 53.2867 130 54.1402 130 55.0302V63H119.5C118.572 63 117.682 62.6465 117.025 62.0171C116.369 61.3878 116 60.5343 116 59.6443V41.4094C116 40.8299 116.157 40.2603 116.454 39.7561C116.752 39.2518 117.181 38.83 117.699 38.5319L131.699 30.4782C132.243 30.1653 132.866 30 133.5 30C134.134 30 134.757 30.1653 135.301 30.4782L149.301 38.5319C149.819 38.83 150.248 39.2518 150.546 39.7561C150.843 40.2603 151 40.8299 151 41.4094V59.6443C151 60.5343 150.631 61.3878 149.975 62.0171C149.318 62.6465 148.428 63 147.5 63H137Z" fill="white"/>
</g>
<defs>
<filter id="filter0_d" x="112" y="30" width="43" height="41" filterUnits="userSpaceOnUse" color-interpolation-filters="sRGB">
<feFlood flood-opacity="0" result="BackgroundImageFix"/>
<feColorMatrix in="SourceAlpha" type="matrix" values="0 0 0 0 0 0 0 0 0 0 0 0 0 0 0 0 0 0 127 0"/>
<feOffset dy="4"/>
<feGaussianBlur stdDeviation="2"/>
<feColorMatrix type="matrix" values="0 0 0 0 0 0 0 0 0 0 0 0 0 0 0 0 0 0 0.25 0"/>
<feBlend mode="normal" in2="BackgroundImageFix" result="effect1_dropShadow"/>
<feBlend mode="normal" in="SourceGraphic" in2="effect1_dropShadow" result="shape"/>
</filter>
</defs>
</svg>
