<svg width="323" height="73" viewBox="0 0 323 73" fill="none" xmlns="http://www.w3.org/2000/svg">
<path d="M7.77725 48.608H12.7693V19.36H7.77725V15.968H26.7213C30.5613 15.968 33.5479 16.7787 35.6813 18.4C37.8573 19.9787 38.9453 22.304 38.9453 25.376C38.9453 30.8373 35.8519 34.0373 29.6653 34.976L37.9213 48.608H43.2333V52H34.3373L24.6733 35.488H20.2573V31.968H25.8893C28.7479 31.968 30.7746 31.3493 31.9693 30.112C33.1639 28.832 33.7613 27.2747 33.7613 25.44C33.7613 23.648 33.1639 22.1973 31.9693 21.088C30.8173 19.936 29.0893 19.36 26.7853 19.36H18.0173V48.608H23.0093V52H7.77725V48.608ZM72.1703 40.416H51.4343C51.7329 43.104 52.6929 45.2373 54.3142 46.816C55.9356 48.352 58.0049 49.12 60.5223 49.12C64.0209 49.12 67.1996 47.776 70.0583 45.088L71.7223 47.968C70.4849 49.4187 68.9276 50.592 67.0503 51.488C65.1729 52.3413 63.0609 52.768 60.7143 52.768C58.0689 52.768 55.6583 52.2133 53.4823 51.104C51.3063 49.9947 49.5996 48.4373 48.3623 46.432C47.1249 44.384 46.5063 42.0587 46.5063 39.456C46.5063 36.8107 47.0823 34.4853 48.2343 32.48C49.4289 30.432 51.0289 28.8747 53.0343 27.808C55.0823 26.6987 57.3436 26.144 59.8183 26.144C63.6583 26.144 66.6663 27.3173 68.8423 29.664C71.0609 32.0107 72.1703 35.1893 72.1703 39.2V40.416ZM67.4983 37.472C67.4983 35.04 66.7729 33.12 65.3223 31.712C63.9143 30.304 62.0796 29.6 59.8183 29.6C57.5996 29.6 55.7223 30.304 54.1863 31.712C52.6503 33.12 51.7329 35.04 51.4343 37.472H67.4983ZM107.366 48.608V52H93.8623V48.608H98.0223V35.488C98.0223 33.7387 97.5956 32.3733 96.7423 31.392C95.8889 30.4107 94.7156 29.92 93.2222 29.92C91.9849 29.92 90.7263 30.1547 89.4463 30.624C88.2089 31.0507 86.8436 31.712 85.3503 32.608V48.608H89.8943V52H75.8143V48.608H80.6783V30.24H75.8143V26.848H85.3503V29.344C88.6783 27.2533 91.7076 26.208 94.4383 26.208C96.8276 26.208 98.7903 26.9547 100.326 28.448C101.905 29.8987 102.694 31.9467 102.694 34.592V48.608H107.366ZM120.205 52C115.341 52 112.909 49.5253 112.909 44.576V30.24H108.749V26.848H112.909V18.272L117.645 16.416V26.848H124.301V30.24H117.645V44.32C117.645 45.8987 117.901 47.008 118.413 47.648C118.925 48.288 119.799 48.608 121.037 48.608H124.877V52H120.205Z" fill="white"/>
<path d="M173.166 48.608H177.838V18.656H173.294V15.328H182.574V48.608H186.67V52H173.166V48.608ZM193.631 19.36H189.087V15.968H203.743V19.36H199.007L209.183 46.304L219.231 19.36H214.623V15.968H228.319V19.36H223.903L211.103 52H206.559L193.631 19.36ZM237.438 21.344C236.456 21.344 235.624 21.0453 234.942 20.448C234.302 19.808 233.982 19.0187 233.982 18.08C233.982 17.1413 234.302 16.3733 234.942 15.776C235.624 15.136 236.456 14.816 237.438 14.816C238.419 14.816 239.23 15.136 239.87 15.776C240.552 16.3733 240.894 17.1413 240.894 18.08C240.894 19.0187 240.552 19.808 239.87 20.448C239.23 21.0453 238.419 21.344 237.438 21.344ZM230.846 48.608H235.71V30.24H230.91V26.848H240.382V48.608H244.926V52H230.846V48.608ZM263.076 37.408C265.039 37.8773 266.596 38.3893 267.748 38.944C268.943 39.456 269.903 40.224 270.628 41.248C271.353 42.272 271.716 43.6373 271.716 45.344C271.716 47.7333 270.777 49.5467 268.9 50.784C267.023 52.0213 264.761 52.64 262.116 52.64C260.495 52.64 258.959 52.384 257.508 51.872C256.057 51.36 254.905 50.6773 254.052 49.824V52H250.34V43.296H253.668L253.924 46.048C254.649 47.1147 255.695 47.9467 257.06 48.544C258.468 49.0987 259.94 49.376 261.476 49.376C263.14 49.376 264.505 49.056 265.572 48.416C266.639 47.7333 267.172 46.8373 267.172 45.728C267.172 44.448 266.767 43.5307 265.956 42.976C265.145 42.4213 263.631 41.9093 261.412 41.44L257.892 40.672C255.289 40.032 253.369 39.2 252.132 38.176C250.895 37.1093 250.276 35.4667 250.276 33.248C250.276 31.072 251.129 29.3653 252.836 28.128C254.585 26.848 256.825 26.208 259.556 26.208C260.879 26.208 262.223 26.4213 263.588 26.848C264.996 27.2747 266.105 27.872 266.916 28.64V26.72H270.692V35.36H267.364L266.916 32.224C266.276 31.456 265.316 30.8373 264.036 30.368C262.799 29.856 261.561 29.6 260.324 29.6C258.831 29.6 257.572 29.8987 256.548 30.496C255.524 31.0933 255.012 31.968 255.012 33.12C255.012 34.0587 255.375 34.784 256.1 35.296C256.825 35.808 258.063 36.2773 259.812 36.704L263.076 37.408ZM267.62 33.504L267.556 33.376L267.62 33.504ZM253.156 44.448C253.156 44.5333 253.177 44.5973 253.22 44.64L253.156 44.448ZM286.861 52C281.997 52 279.565 49.5253 279.565 44.576V30.24H275.405V26.848H279.565V18.272L284.301 16.416V26.848H290.957V30.24H284.301V44.32C284.301 45.8987 284.557 47.008 285.069 47.648C285.581 48.288 286.456 48.608 287.693 48.608H291.533V52H286.861ZM321.599 48.608V52H313.471L313.215 49.76C311.85 50.784 310.484 51.5307 309.119 52C307.754 52.4693 306.218 52.704 304.511 52.704C301.951 52.704 299.86 52 298.239 50.592C296.66 49.1413 295.871 47.3493 295.871 45.216C295.871 42.4853 296.788 40.5013 298.623 39.264C300.5 37.984 302.954 37.344 305.983 37.344C308.159 37.344 310.484 37.6213 312.959 38.176V35.552C312.959 33.632 312.426 32.1813 311.359 31.2C310.335 30.2187 308.884 29.728 307.007 29.728C305.77 29.728 304.34 29.9413 302.719 30.368C301.14 30.752 299.69 31.3067 298.367 32.032L296.959 28.96C298.367 28.064 299.988 27.3813 301.823 26.912C303.7 26.4427 305.45 26.208 307.071 26.208C310.356 26.208 312.938 27.0187 314.815 28.64C316.692 30.2187 317.631 32.3733 317.631 35.104V48.608H321.599ZM300.351 44.96C300.351 46.2827 300.778 47.3707 301.631 48.224C302.527 49.0347 303.722 49.44 305.215 49.44C307.732 49.44 310.314 48.5227 312.959 46.688V40.928C310.698 40.416 308.479 40.16 306.303 40.16C304.596 40.16 303.167 40.544 302.015 41.312C300.906 42.0373 300.351 43.2533 300.351 44.96Z" fill="white"/>
<g filter="url(#filter0_d)">
<path d="M163.5 48.6443V30.4094L149.5 22.3557L135.5 30.4094V48.6443H142.5V44.0302C142.5 42.2502 143.237 40.5432 144.55 39.2845C145.863 38.0259 147.643 37.3188 149.5 37.3188C151.357 37.3188 153.137 38.0259 154.45 39.2845C155.763 40.5432 156.5 42.2502 156.5 44.0302V48.6443H163.5ZM153 52V44.0302C153 43.1402 152.631 42.2867 151.975 41.6574C151.318 41.0281 150.428 40.6745 149.5 40.6745C148.572 40.6745 147.682 41.0281 147.025 41.6574C146.369 42.2867 146 43.1402 146 44.0302V52H135.5C134.572 52 133.682 51.6465 133.025 51.0171C132.369 50.3878 132 49.5343 132 48.6443V30.4094C132 29.8299 132.157 29.2603 132.454 28.7561C132.752 28.2518 133.181 27.83 133.699 27.5319L147.699 19.4782C148.243 19.1653 148.866 19 149.5 19C150.134 19 150.757 19.1653 151.301 19.4782L165.301 27.5319C165.819 27.83 166.248 28.2518 166.546 28.7561C166.843 29.2603 167 29.8299 167 30.4094V48.6443C167 49.5343 166.631 50.3878 165.975 51.0171C165.318 51.6465 164.428 52 163.5 52H153Z" fill="white"/>
</g>
<defs>
<filter id="filter0_d" x="128" y="19" width="43" height="41" filterUnits="userSpaceOnUse" color-interpolation-filters="sRGB">
<feFlood flood-opacity="0" result="BackgroundImageFix"/>
<feColorMatrix in="SourceAlpha" type="matrix" values="0 0 0 0 0 0 0 0 0 0 0 0 0 0 0 0 0 0 127 0"/>
<feOffset dy="4"/>
<feGaussianBlur stdDeviation="2"/>
<feColorMatrix type="matrix" values="0 0 0 0 0 0 0 0 0 0 0 0 0 0 0 0 0 0 0.25 0"/>
<feBlend mode="normal" in2="BackgroundImageFix" result="effect1_dropShadow"/>
<feBlend mode="normal" in="SourceGraphic" in2="effect1_dropShadow" result="shape"/>
</filter>
</defs>
</svg>
